<?xml version="1.0" encoding="utf-8"?>
<!-- Generator: Adobe Illustrator 22.0.1, SVG Export Plug-In . SVG Version: 6.00 Build 0)  -->
<svg version="1.1" id="Warstwa_1" xmlns="http://www.w3.org/2000/svg" xmlns:xlink="http://www.w3.org/1999/xlink" x="0px" y="0px"
	 viewBox="0 0 707.1 200" style="enable-background:new 0 0 707.1 200;" xml:space="preserve">
<style type="text/css">
	.st0{fill:#042c94;}
	.st1{fill:#042c94;}
</style>
<g>
	<polygon class="st0" points="143.3,31.5 3.5,31.5 3.5,47.1 65.3,47.1 65.3,168.5 81.5,168.5 81.5,47.1 143.3,47.1 	"/>
	<polygon class="st0" points="257.1,31.5 155.9,31.5 155.9,32.2 155.9,32.2 155.9,168.5 172,168.5 172,47.1 257.1,47.1 	"/>
	<rect x="271.4" y="31.5" class="st0" width="16.2" height="136.9"/>
	<polygon class="st0" points="444.4,42.2 433.4,31.6 373.8,89.4 314.2,31.5 303.1,42.2 362.8,100 303.2,157.8 314.3,168.5 
		373.8,110.7 433.3,168.4 444.3,157.8 384.8,100 	"/>
</g>
<g>
	<polygon class="st1" points="622.3,157.9 681.5,100.1 622.3,42.3 633.4,31.8 692.5,89.5 692.5,89.4 703.5,100 633.3,168.5 	"/>
	<polygon class="st1" points="462.7,157.6 521.5,100.5 461.3,42.3 472.4,31.7 532.5,89.9 592.6,31.5 603.7,42.1 543.5,100.5 
		590.6,146.1 647,91.3 658,101.9 590.7,167.3 590.5,167.1 590.4,167.2 532.5,111.2 473.7,168.2 	"/>
</g>
</svg>
